<svg width="600" height="1450" viewBox="0 0 690 1400" fill="none" xmlns="http://www.w3.org/2000/svg">
    <path fill-rule="evenodd" clip-rule="evenodd" d="M469.012 45.0851C544.07 47.6918 614.179 76.9031 669.29 127.926C726.853 181.219 766.124 250.243 774.814 328.205C784.663 416.559 782.518 515.986 719.54 578.733C656.621 641.422 557.307 642.511 469.012 632.887C391.06 624.39 327.014 580.81 267.73 529.486C201.865 472.462 119.889 415.28 117.082 328.205C114.238 239.955 185.525 168.861 254.322 113.515C315.161 64.5712 390.976 42.3751 469.012 45.0851Z" fill="#AA1E1E" fill-opacity="0.6"/>
    <path fill-rule="evenodd" clip-rule="evenodd" d="M481.805 0.228515C558.54 2.92547 630.216 33.1487 686.557 85.9393C745.406 141.079 785.554 212.494 794.438 293.156C804.507 384.572 802.315 487.443 737.93 552.364C673.605 617.225 572.073 618.352 481.805 608.394C402.112 599.603 336.635 554.513 276.028 501.411C208.691 442.412 124.884 383.248 122.015 293.156C119.107 201.849 191.986 128.292 262.32 71.0289C324.518 20.3896 402.027 -2.57541 481.805 0.228515Z" fill="#AA1E1E" fill-opacity="0.6"/>
    <ellipse cx="658.5" cy="653.364" rx="317.5" ry="338.5" fill="#E4B8B8" fill-opacity="0.7"/>
    <ellipse cx="348" cy="771.592" rx="100" ry="97.7273" fill="#920707" fill-opacity="0.65"/>
    <path fill-rule="evenodd" clip-rule="evenodd" d="M703.627 1206.14C694.062 1258.57 689.224 1314.81 649.472 1352.71C608.291 1391.97 547.704 1416.52 486.875 1412.78C429.401 1409.26 388.108 1363.15 339.288 1333.67C293.842 1306.22 240.422 1288.52 211.453 1246.45C180.091 1200.91 160.545 1145.04 174.492 1094.34C188.174 1044.61 243.291 1019.05 283.631 984.09C325.461 947.839 356.493 894.567 414.346 886.482C473.154 878.263 529.402 912.769 580.923 942.543C630.857 971.4 680.989 1004.45 703.993 1053.87C726.627 1102.49 712.93 1155.15 703.627 1206.14Z" fill="#803434"/>
    <path fill-rule="evenodd" clip-rule="evenodd" d="M705.029 1179.53C694.564 1237.82 689.949 1300.49 642.343 1341.88C593.026 1384.76 519.713 1410.77 445.457 1405.22C375.298 1399.97 323.896 1347.57 263.696 1313.55C207.656 1281.88 142.117 1260.9 105.834 1213.29C66.5538 1161.74 41.4455 1098.94 57.2948 1042.67C72.8421 987.475 139.463 960.208 187.853 922.11C238.029 882.606 274.651 823.857 345.008 816.154C416.526 808.323 485.897 848.119 549.397 882.526C610.941 915.874 672.822 953.907 701.999 1009.59C730.708 1064.37 715.209 1122.83 705.029 1179.53Z" fill="#803434" fill-opacity="0.35"/>
</svg>