<svg width="1149" height="250" viewBox="0 0 1149 250" fill="none" xmlns="http://www.w3.org/2000/svg">
    <g clip-path="url(#clip0_1066_42)">
        <rect width="1149" height="250" fill="white"/>
        <path fill-rule="evenodd" clip-rule="evenodd" d="M240.59 -165.562C284.448 -169.935 323.668 -140.878 354.899 -109.776C386.207 -78.598 408.127 -39.5297 411.392 4.53353C414.925 52.2219 403.176 99.8858 373.195 137.139C339.591 178.896 294.105 219.759 240.59 216.769C188.31 213.849 147.528 168.833 122.016 123.108C101.996 87.2262 117.366 45.3399 122.174 4.53353C126.099 -28.7861 127.841 -61.5113 147.01 -89.046C170.943 -123.423 198.909 -161.405 240.59 -165.562Z" fill="#AA1E1E"/>
        <path fill-rule="evenodd" clip-rule="evenodd" d="M97.2091 -168.994C146.978 -168.615 200.857 -151.609 228.163 -109.997C253.087 -72.0135 222.917 -24.462 221.852 20.9564C220.837 64.243 250.205 112.919 222.16 145.908C193.697 179.388 141.153 167.516 97.2091 167.573C53.1723 167.63 4.24522 176.151 -28.0688 146.234C-61.0161 115.731 -59.8169 65.8363 -61.1532 20.9564C-62.5493 -25.9317 -65.7963 -75.981 -35.7582 -112.011C-3.65802 -150.514 47.0816 -169.377 97.2091 -168.994Z" fill="#D96B6B"/>
        <path fill-rule="evenodd" clip-rule="evenodd" d="M104.305 119.133C140.351 120.818 178.233 107.491 208.081 127.77C242.683 151.28 278.124 190.558 269.76 231.547C261.538 271.844 202.272 271.352 172.909 300.151C144.185 328.324 143.906 386.715 104.305 393.827C64.2679 401.017 30.864 362.119 5.66387 330.188C-16.4341 302.187 -21.2025 267.125 -23.7657 231.547C-26.6251 191.859 -39.5579 143.837 -9.65315 117.589C20.0276 91.5363 64.8554 117.288 104.305 119.133Z" fill="#803434"/>
        <path fill-rule="evenodd" clip-rule="evenodd" d="M1189.67 66.0962C1221.8 100.4 1203.18 154.505 1199.62 201.373C1197.09 234.753 1190.53 265.926 1172.39 294.061C1152.17 325.425 1129.85 361.159 1092.96 366.791C1055.73 372.474 1028.1 337.826 994.284 321.248C943.935 296.563 858.236 303.22 850.123 247.735C842.04 192.455 928.494 177.192 967.35 137.049C997.777 105.612 1008.12 54.736 1049.8 41.4343C1096.69 26.4711 1156.03 30.1781 1189.67 66.0962Z" fill="#920707"/>
        <path fill-rule="evenodd" clip-rule="evenodd" d="M1018.01 -50.7486C1047.21 -46.159 1076.9 -53.2908 1102.39 -38.3372C1137.27 -17.8764 1183.39 5.60417 1183 46.0385C1182.61 86.4626 1135.29 107.75 1100.77 128.794C1075.72 144.064 1046.96 141.894 1018.01 146.624C978.347 153.105 934.691 185.755 902.934 161.118C871.175 136.479 888.495 86.2344 888.36 46.0385C888.225 5.60903 869.761 -45.6301 902.159 -69.8155C934.763 -94.1542 977.821 -57.0673 1018.01 -50.7486Z" fill="#D96B6B"/>
        <path fill-rule="evenodd" clip-rule="evenodd" d="M820.039 -84.9812C858.847 -84.222 891.645 -59.4523 918.335 -31.2701C944.161 -4.00083 964.116 29.468 963.999 67.0256C963.883 104.482 949.749 145.283 917.727 164.713C888.625 182.371 854.06 153.234 820.039 154.375C783.376 155.606 747.579 189.416 715.569 171.496C680.343 151.776 663.569 107.393 664.008 67.0256C664.445 26.9984 689.148 -7.25999 717.821 -35.193C746.042 -62.6862 780.648 -85.7519 820.039 -84.9812Z" fill="#803434"/>
        <path fill-rule="evenodd" clip-rule="evenodd" d="M802.983 82C844.981 82.0303 886.123 99.6497 913.684 131.339C939.678 161.227 948.145 202.882 942.175 242.04C936.96 276.238 907.677 297.865 884.392 323.449C859.116 351.22 840.1 400.66 802.983 394.972C765.07 389.163 770.614 328.648 743.209 301.814C715.121 274.312 658.066 279.699 646.792 242.04C634.888 202.281 663.134 160.881 692.122 131.179C721.475 101.103 760.957 81.9697 802.983 82Z" fill="#E49E9E"/>
        <path fill-rule="evenodd" clip-rule="evenodd" d="M611.423 -20.5286C653.544 -19.4498 703.546 -30.5673 731.028 1.37188C758.064 32.7938 730.316 79.6236 733.179 120.977C736.489 168.782 779.97 221.962 748.821 258.375C717.851 294.579 659.064 263.496 611.423 263.311C564.133 263.128 507.847 291.416 475.085 257.315C442.354 223.246 472.799 168.184 474.68 120.977C476.422 77.2254 455.102 26.5712 485.53 -4.91584C516.077 -36.5269 567.478 -21.6541 611.423 -20.5286Z" fill="#AA1E1E"/>
        <path fill-rule="evenodd" clip-rule="evenodd" d="M453.38 -49.5893C490.566 -47.313 533.002 -66.4615 560.583 -41.4149C588.551 -16.0164 578.415 28.0627 580.431 65.7886C582.641 107.159 602.612 156.446 572.685 185.094C542.816 213.688 494.451 182.624 453.38 187.414C400.51 193.58 341.273 253.14 302.572 216.596C264.174 180.338 318.858 118.29 324.577 65.7886C329.132 23.9602 300.856 -27.3212 332.196 -55.395C363.511 -83.4457 411.417 -52.1579 453.38 -49.5893Z" fill="#E49E9E"/>
        <path fill-rule="evenodd" clip-rule="evenodd" d="M515.948 290.564C487.099 328.466 425.745 279.244 378.571 285.833C337.086 291.627 301.875 344.502 264.45 325.689C227.198 306.963 229.267 252.378 229.076 210.684C228.925 177.486 244.678 148.62 263.516 121.284C282.016 94.4391 302.27 67.0555 333.791 58.7294C367.004 49.9564 403.763 56.3531 431.231 76.9835C457.57 96.7662 460.119 132.113 472.264 162.733C489.524 206.246 544.299 253.314 515.948 290.564Z" fill="#920707"/>
    </g>
    <defs>
        <clipPath id="clip0_1066_42">
            <rect width="1149" height="250" fill="white"/>
        </clipPath>
    </defs>
</svg>