<svg width="457" height="482" viewBox="0 0 457 482" fill="none" xmlns="http://www.w3.org/2000/svg">
<path fill-rule="evenodd" clip-rule="evenodd" d="M229.469 37.7951C257.041 37.0461 280.801 56.5621 306.138 67.7401C330.843 78.6399 356.528 87.0446 378.182 103.404C400.749 120.454 424.583 139.013 435.512 165.485C446.425 191.918 437.19 222.147 439.029 250.79C440.828 278.812 452.104 306.534 446.33 333.985C440.503 361.689 423.319 385.337 406.073 407.481C389.03 429.365 370.139 450.729 345.69 463.209C321.687 475.461 293.985 475.541 267.309 478.311C241.938 480.944 216.473 484.325 191.463 479.218C166.551 474.131 144.167 461.437 122.04 448.646C99.4016 435.559 77.3886 421.577 59.0635 402.68C39.6267 382.636 21.0772 360.791 11.2376 334.385C1.19033 307.422 -2.5932 277.579 1.82455 249.072C6.18466 220.936 24.0172 197.612 36.3863 172.103C48.7599 146.586 53.9896 115.547 75.3879 97.3648C96.8215 79.1527 128.313 81.9329 154.358 71.8635C180.194 61.8748 201.867 38.545 229.469 37.7951Z" fill="#955454" fill-opacity="0.6"/>
<path fill-rule="evenodd" clip-rule="evenodd" d="M238.508 0.0209492C266.08 -0.728098 289.84 18.7879 315.177 29.966C339.883 40.8657 365.568 49.2704 387.221 65.63C409.788 82.6798 433.623 101.239 444.552 127.711C455.464 154.144 446.23 184.373 448.069 213.016C449.868 241.038 461.143 268.76 455.369 296.211C449.543 323.914 432.359 347.563 415.113 369.707C398.069 391.591 379.179 412.955 354.73 425.434C330.726 437.687 303.025 437.767 276.349 440.536C250.978 443.17 225.512 446.551 200.502 441.444C175.591 436.357 153.207 423.663 131.079 410.872C108.441 397.785 86.4281 383.803 68.1031 364.906C48.6663 344.862 30.1168 323.017 20.2772 296.611C10.2299 269.648 6.44635 239.805 10.8641 211.297C15.2242 183.162 33.0568 159.837 45.4259 134.329C57.7995 108.811 63.0292 77.7726 84.4274 59.5906C105.861 41.3785 137.352 44.1588 163.397 34.0894C189.234 24.1006 210.907 0.770806 238.508 0.0209492Z" fill="#955454" fill-opacity="0.6"/>
</svg>
