<svg width="457" height="482" viewBox="0 0 457 482" fill="none" xmlns="http://www.w3.org/2000/svg">
<path fill-rule="evenodd" clip-rule="evenodd" d="M224.467 1.74412C252.426 0.469511 281.274 -3.17558 307.584 6.45397C333.986 16.117 356.982 34.6821 374.648 56.7106C391.694 77.9648 395.58 106.419 407.462 130.991C419.264 155.397 440.941 175.469 445.053 202.306C449.183 229.258 438.965 256.17 430.615 282.11C422.417 307.581 414.407 334.278 396.279 353.839C378.405 373.126 349.867 377.198 328.442 392.361C305.805 408.38 291.707 436.345 265.825 446.159C239.708 456.062 210.084 453.673 182.848 447.566C155.866 441.516 132.471 425.816 109.05 411.006C85.7007 396.241 62.4352 381.159 44.4786 360.069C26.1038 338.489 9.32993 314.229 3.03591 286.497C-3.20672 258.991 0.90482 229.84 8.77742 202.763C16.1932 177.257 36.7748 158.292 47.3851 133.962C58.4921 108.494 55.6567 76.9397 73.0625 55.3568C90.4956 33.7401 118.146 23.1308 144.209 13.902C169.954 4.78551 197.21 2.98672 224.467 1.74412Z" fill="#D96B6B" fill-opacity="0.6"/>
<path fill-rule="evenodd" clip-rule="evenodd" d="M235.467 30.7441C263.426 29.4695 292.274 25.8244 318.584 35.454C344.986 45.117 367.982 63.6821 385.648 85.7106C402.694 106.965 406.58 135.419 418.462 159.991C430.264 184.397 451.941 204.469 456.053 231.306C460.183 258.258 449.965 285.17 441.615 311.11C433.417 336.581 425.407 363.278 407.279 382.839C389.405 402.126 360.867 406.198 339.442 421.361C316.805 437.38 302.707 465.345 276.825 475.159C250.708 485.062 221.084 482.673 193.848 476.566C166.866 470.516 143.471 454.816 120.05 440.006C96.7007 425.241 73.4352 410.158 55.4786 389.069C37.1038 367.489 20.3299 343.229 14.0359 315.497C7.79328 287.991 11.9048 258.84 19.7774 231.763C27.1932 206.257 47.7748 187.292 58.3851 162.962C69.4921 137.494 66.6567 105.94 84.0625 84.3568C101.496 62.7401 129.146 52.1308 155.209 42.902C180.954 33.7855 208.21 31.9867 235.467 30.7441Z" fill="#D96B6B" fill-opacity="0.6"/>
</svg>
