<svg width="125" height="125" viewBox="0 0 125 125" fill="none" xmlns="http://www.w3.org/2000/svg">
<g clip-path="url(#clip0_1068_53)">
<rect width="125" height="125" rx="62.5" fill="white"/>
<path fill-rule="evenodd" clip-rule="evenodd" d="M32.7932 -1.19644C45.1887 -0.437674 59.3341 -6.82049 68.5277 1.52837C77.8504 9.99454 74.4718 24.6876 75.1436 37.2629C75.8804 51.0529 82.5374 67.4818 72.5618 77.0314C62.6052 86.5627 46.4837 76.2079 32.7932 77.8046C15.1701 79.8598 -4.57581 99.7133 -17.476 87.532C-30.2753 75.446 -12.0472 54.7632 -10.1411 37.2629C-8.62257 23.3201 -18.0482 6.22627 -7.60134 -3.13168C2.83685 -12.4819 18.8057 -2.05264 32.7932 -1.19644Z" fill="#E49E9E"/>
<path fill-rule="evenodd" clip-rule="evenodd" d="M89.2413 84.2517C73.3652 84.0466 74.3733 57.8466 63.2474 46.5193C53.4633 36.5581 32.3146 37.6201 29.9267 23.8632C27.5498 10.1699 42.5799 -0.107662 53.7089 -8.43235C62.5703 -15.0608 73.4276 -16.5696 84.4872 -16.9488C95.3482 -17.3212 106.702 -17.3303 115.187 -10.5403C124.127 -3.38568 129.708 7.72879 129.633 19.1794C129.562 30.1595 120.601 37.8562 114.81 47.1854C106.581 60.4427 104.844 84.4532 89.2413 84.2517Z" fill="#920707"/>
<path fill-rule="evenodd" clip-rule="evenodd" d="M119.046 126.988C107.188 132.163 93.8056 129.229 81.7975 124.412C70.1785 119.75 59.4738 112.394 54.2782 101.004C49.0967 89.644 47.6946 75.3193 54.6862 64.975C61.0401 55.5743 75.5659 59.5841 85.7098 54.5002C96.6417 49.0213 102.774 33.7965 114.963 34.7652C128.378 35.8312 139.639 46.9358 145.128 59.2221C150.571 71.4048 147.861 85.2203 143.068 97.673C138.351 109.93 131.083 121.735 119.046 126.988Z" fill="#803434"/>
<path fill-rule="evenodd" clip-rule="evenodd" d="M-16.0796 117.063C-20.5399 101.083 -20.0522 82.2568 -9.23487 69.6781C0.639215 58.1963 18.6507 63.4839 33.2994 59.6438C47.2605 55.984 60.1509 42.094 73.3013 48.0415C86.6479 54.0778 87.6816 72.0042 91.7456 86.0773C95.8182 100.18 103.052 115.07 96.4429 128.177C89.7038 141.54 73.6089 145.75 59.3538 150.309C44.4609 155.073 28.7257 160.721 14.4175 154.415C-0.872921 147.676 -11.5872 133.157 -16.0796 117.063Z" fill="#D96B6B"/>
</g>
<defs>
<clipPath id="clip0_1068_53">
<rect width="125" height="125" rx="62.5" fill="white"/>
</clipPath>
</defs>
</svg>
