<svg width="458" height="468" viewBox="0 0 458 468" fill="none" xmlns="http://www.w3.org/2000/svg">
<path fill-rule="evenodd" clip-rule="evenodd" d="M226.096 17.3399C254.659 14.4195 281.474 30.947 307.698 42.7378C333.25 54.2265 359.163 66.1351 378.964 86.0729C398.532 105.776 409.909 131.777 421.346 157.171C432.568 182.088 444.565 207.379 445.909 234.714C447.24 261.788 433.601 286.812 429.031 313.524C424.025 342.783 435.748 377.811 417.449 401.065C399.014 424.492 362.991 422.752 335.099 432.89C311.214 441.572 288.214 451.274 263.477 457.031C238.131 462.93 212.761 468.907 186.792 467.406C159.507 465.828 130.428 463.497 107.801 448.031C85.1983 432.581 77.7109 402.835 60.7487 381.25C43.4322 359.214 16.0602 344.674 5.97781 318.456C-4.14004 292.147 0.908759 262.541 4.32545 234.531C7.69355 206.92 10.701 177.889 25.9519 154.712C41.017 131.818 68.2246 121.17 89.8848 104.509C110.153 88.9205 129.137 72.5666 150.659 58.7938C175.046 43.1869 197.364 20.2776 226.096 17.3399Z" fill="#920707" fill-opacity="0.6"/>
<path fill-rule="evenodd" clip-rule="evenodd" d="M238.096 0.339938C266.659 -2.58047 293.474 13.947 319.698 25.7378C345.25 37.2265 371.163 49.1351 390.964 69.0729C410.532 88.776 421.909 114.777 433.346 140.171C444.568 165.088 456.565 190.379 457.909 217.714C459.24 244.788 445.601 269.812 441.031 296.524C436.025 325.783 447.748 360.811 429.449 384.065C411.014 407.492 374.991 405.752 347.099 415.89C323.214 424.572 300.214 434.274 275.477 440.031C250.131 445.93 224.761 451.907 198.792 450.406C171.507 448.828 142.428 446.497 119.801 431.031C97.1983 415.581 89.7109 385.835 72.7487 364.25C55.4322 342.214 28.0602 327.674 17.9778 301.456C7.85996 275.147 12.9088 245.541 16.3254 217.531C19.6936 189.92 22.701 160.888 37.9519 137.712C53.017 114.818 80.2246 104.17 101.885 87.5095C122.153 71.9205 141.137 55.5666 162.659 41.7938C187.046 26.1869 209.364 3.27756 238.096 0.339938Z" fill="#920707" fill-opacity="0.6"/>
</svg>
