<svg width="455" height="472" viewBox="0 0 455 472" fill="none" xmlns="http://www.w3.org/2000/svg">
<path fill-rule="evenodd" clip-rule="evenodd" d="M228.465 37.0205C255.916 36.2868 279.572 55.4029 304.798 66.3519C329.396 77.0283 354.968 85.2607 376.526 101.285C398.995 117.985 422.725 136.165 433.606 162.093C444.471 187.985 435.277 217.595 437.108 245.651C438.899 273.099 450.125 300.252 444.377 327.141C438.575 354.277 421.467 377.44 404.296 399.131C387.327 420.567 368.52 441.492 344.177 453.716C320.279 465.717 292.699 465.796 266.14 468.509C240.879 471.088 215.526 474.4 190.625 469.398C165.822 464.415 143.536 451.981 121.506 439.452C98.9666 426.633 77.0499 412.938 58.8051 394.428C39.4533 374.795 20.985 353.397 11.1885 327.533C1.18512 301.122 -2.58185 271.891 1.81657 243.967C6.1576 216.409 23.9121 193.562 36.2271 168.576C48.5465 143.582 53.7533 113.179 75.0579 95.3695C96.3978 77.5306 127.751 80.2538 153.682 70.3908C179.406 60.6067 200.984 37.755 228.465 37.0205Z" fill="#AA1E1E" fill-opacity="0.6"/>
<path fill-rule="evenodd" clip-rule="evenodd" d="M237.465 0.0205199C264.916 -0.713178 288.572 18.4029 313.798 29.3519C338.396 40.0283 363.968 48.2607 385.526 64.2851C407.995 80.9855 431.725 99.1647 442.606 125.093C453.471 150.985 444.277 180.595 446.108 208.651C447.899 236.099 459.125 263.252 453.377 290.141C447.575 317.277 430.467 340.44 413.296 362.131C396.327 383.567 377.52 404.492 353.177 416.716C329.279 428.717 301.699 428.796 275.14 431.509C249.879 434.088 224.526 437.4 199.625 432.398C174.822 427.415 152.536 414.981 130.506 402.452C107.967 389.633 86.0499 375.938 67.8051 357.428C48.4533 337.795 29.985 316.397 20.1885 290.533C10.1851 264.122 6.41815 234.891 10.8166 206.967C15.1576 179.409 32.9121 156.562 45.2271 131.576C57.5465 106.582 62.7533 76.1789 84.0579 58.3695C105.398 40.5306 136.751 43.2538 162.682 33.3908C188.406 23.6067 209.984 0.75501 237.465 0.0205199Z" fill="#AA1E1E" fill-opacity="0.6"/>
</svg>
