<svg width="2353" height="1731" viewBox="0 0 2353 1731" fill="none" xmlns="http://www.w3.org/2000/svg">
<path fill-rule="evenodd" clip-rule="evenodd" d="M1469.94 1363.12C1303.78 1411.86 1117.4 1414.91 938.22 1372.78C751.072 1328.78 585.365 1246.93 475.717 1129.36C351.454 996.112 240.522 799.452 304.35 655.524C368.118 511.731 582.697 440.033 785.803 393.095C965.114 351.657 1358.63 400.225 1547.23 439.891C1756.76 483.961 1809.62 493.417 1917.09 629.596C2026.01 767.612 1941.98 967.003 1856.89 1103.29C1781.64 1223.8 1642.7 1312.44 1469.94 1363.12Z" fill="#AA1E1E" fill-opacity="0.6"/>
<path fill-rule="evenodd" clip-rule="evenodd" d="M1188.02 469.427C1350.25 481.023 1521.28 489.132 1656.64 537.162C1796.86 586.919 1903.72 660.09 1926.04 733.529C1947.12 802.918 1918.01 1064.23 1856.61 1123.14C1799.47 1177.99 1750.27 1076.18 1640.26 1111.12C1521.16 1148.95 1304.01 1132.88 1144.54 1115.99C988.102 1099.43 541.748 1081.52 414.866 1032.78C283.298 982.241 446.193 896.069 390.13 826.213C333.143 755.203 405.612 677.452 466.388 615.276C525.292 555.014 596.749 486.702 732.041 458.974C865.161 431.691 1030.22 458.148 1188.02 469.427Z" fill="#803434" fill-opacity="0.35"/>
<path fill-rule="evenodd" clip-rule="evenodd" d="M1447.59 1414.21C1277.25 1452.96 1093.17 1447.68 922.327 1400.05C743.88 1350.3 591.691 1265.75 499.587 1149.91C395.205 1018.63 307.334 863.363 389.743 730.235C472.076 597.23 693.243 538.915 899.745 503.482C1082.06 472.199 1265.95 503.203 1446.42 548.921C1646.92 599.716 1857.73 628.66 1945.16 761.972C2033.78 897.082 1966.44 1060.79 1864.11 1185.77C1773.62 1296.29 1624.7 1373.91 1447.59 1414.21Z" fill="#AA1E1E" fill-opacity="0.6"/>
</svg>
