<svg width="1000" height="1300" viewBox="-300 200 1200 1200" fill="none" xmlns="http://www.w3.org/2000/svg">
<path fill-rule="evenodd" clip-rule="evenodd" d="M1232.64 552.721C1291.95 671.22 1305.66 804.623 1272.75 933.292C1238.37 1067.69 1164.06 1187.09 1050.02 1266.69C920.779 1356.9 751.863 1437.93 601.005 1393.59C450.287 1349.29 364.748 1196.35 305.191 1051.38C252.61 923.405 261.643 787.207 291.501 651.818C324.674 501.395 344.494 325.879 477.691 247.66C612.684 168.385 800.609 218.518 944.856 278.153C1072.42 330.889 1170.98 429.521 1232.64 552.721Z" fill="#AA1E1E" fill-opacity="0.6"/>
<path fill-rule="evenodd" clip-rule="evenodd" d="M334.467 762.962C337.109 646.711 335.685 524.194 377.124 426.84C420.054 325.985 525.643 213.666 599.5 197C669.283 181.254 739.771 144.651 941.5 206C1143.23 267.349 1124.58 302.186 1190 365C1255.42 427.814 1248.71 628.672 1240.5 743C1232.44 855.149 1159.81 1145.21 1117.17 1236.5C1084.04 1320.41 1054.5 1345.5 959.358 1401.67C864.218 1457.83 591.732 1321.13 524.675 1278.21C459.682 1236.6 385.742 1186.09 349.688 1089.5C314.213 994.453 331.897 876.035 334.467 762.962Z" fill="#803434" fill-opacity="0.35"/>
<path fill-rule="evenodd" clip-rule="evenodd" d="M1285.1 568.515C1334.43 690.102 1339.48 821.929 1300.47 944.687C1259.72 1072.91 1181.88 1182.65 1068.61 1249.68C940.255 1325.64 786.413 1390.01 645.546 1332.27C504.809 1274.57 432.587 1116.79 384.604 969.288C342.243 839.066 363.507 707.12 400.018 577.497C440.584 433.481 458.212 282.289 589.614 218.44C722.789 153.728 894.083 200.398 1027.74 272.478C1145.95 336.22 1233.81 442.105 1285.1 568.515Z" fill="#AA1E1E" fill-opacity="0.6"/>
</svg>
