<svg width="500" height="800" viewBox="550 650 1950 1060" fill="none" xmlns="http://www.w3.org/2000/svg">
    <path fill-rule="evenodd" clip-rule="evenodd" d="M290.211 807.435C267.735 671.733 294.431 535.381 365.392 418.143C439.51 295.69 548.254 200.442 683.965 156.899C837.767 107.552 1027.69 79.5788 1162.19 170.17C1296.58 260.676 1334.4 438.605 1349.16 600.591C1362.19 743.599 1312.36 875.682 1242.37 1000.52C1164.61 1139.22 1092.38 1306.9 938.316 1343.14C782.169 1379.88 613.078 1272.08 489.651 1168.39C380.501 1076.69 313.578 948.52 290.211 807.435Z" fill="#AA1E1E" fill-opacity="0.4"/>
    <path fill-rule="evenodd" clip-rule="evenodd" d="M112.22 762.308C89.7964 627.442 115.394 492.103 184.29 375.904C256.251 254.534 362.124 160.307 494.515 117.53C644.554 69.0516 829.941 41.9286 961.623 132.377C1093.18 222.741 1130.74 399.602 1145.72 560.546C1158.94 702.636 1110.74 833.654 1042.82 957.406C967.357 1094.9 897.402 1261.2 747.058 1296.66C594.685 1332.6 429.167 1224.95 308.26 1121.52C201.339 1030.06 135.533 902.523 112.22 762.308Z" fill="#412626" fill-opacity="0.4"/>
    <path fill-rule="evenodd" clip-rule="evenodd" d="M242.7 752.44C230.397 611.292 264.333 474.047 338.617 360.502C416.205 241.904 524.558 154.401 654.89 122.388C802.595 86.1082 971.757 70.0622 1092.25 175.39C1212.62 280.619 1236.6 466.464 1239.95 633.828C1242.9 781.585 1183.24 910.369 1109.37 1031.79C1027.31 1166.7 965.514 1316.46 818.41 1339.29C669.321 1362.43 515.864 1258.57 406.636 1140.85C310.043 1036.75 255.491 899.185 242.7 752.44Z" fill="#AA1E1E" fill-opacity="0.4"/>
</svg>