<svg width="800" height="950" viewBox="440 480 1900 800" fill="none" xmlns="http://www.w3.org/2000/svg">
    <path fill-rule="evenodd" clip-rule="evenodd" d="M110.923 744.904C89.329 614.162 115.701 482.676 185.207 369.504C257.805 251.297 364.112 159.228 496.599 116.929C646.747 68.9911 832.073 41.5668 963.059 128.555C1093.92 215.462 1130.38 386.865 1144.39 542.958C1156.75 680.765 1107.82 808.194 1039.25 928.688C963.055 1062.56 892.194 1224.36 741.819 1259.67C589.414 1295.45 424.735 1191.97 304.589 1092.32C198.341 1004.21 133.373 880.831 110.923 744.904Z" fill="#AA1E1E" fill-opacity="0.6"/>
    <path fill-rule="evenodd" clip-rule="evenodd" d="M1031.09 809.807C994.168 920.071 959.281 1037.52 890.893 1118.26C820.047 1201.9 731.511 1255.28 656.03 1249.35C584.713 1243.75 333.233 1146.61 285.169 1086.29C240.427 1030.15 374.908 897.147 358 809.807C339.695 715.25 316.332 484.651 358 377.871C398.874 273.125 454.754 357.961 522.5 283.371C592.748 206.027 696.214 302.138 773.5 283.371C852.062 264.294 950.478 200.51 1001.83 261.353C1051.61 320.321 1107.29 390.45 1113.15 493.387C1118.92 594.671 1066.99 702.556 1031.09 809.807Z" fill="#803434" fill-opacity="0.35"/>
    <path fill-rule="evenodd" clip-rule="evenodd" d="M64.3782 714.241C53.23 583.502 87.4024 456.081 160.989 350.361C237.849 239.939 344.676 158.135 472.698 127.618C617.785 93.0332 783.783 77.0623 901.26 173.899C1018.63 270.646 1040.93 442.734 1043.13 597.829C1045.07 734.754 985.717 854.501 912.49 967.519C831.132 1093.09 769.562 1232.29 625.152 1254.41C478.793 1276.82 328.976 1181.56 222.623 1073.16C128.572 977.305 75.9686 850.165 64.3782 714.241Z" fill="#AA1E1E" fill-opacity="0.6"/>
</svg>